<svg width="131" height="46" viewBox="0 0 131 46" fill="none" xmlns="http://www.w3.org/2000/svg">
<g filter="url(#filter0_d_189_622)">
<path d="M1.3833 7.39841L0.477264 6.26587H11.7574L14.8379 8.12324V12.6987H9.40172V11.6115H6.3665V26.7423L9.85474 29.4151V24.749H14.8379V39.0191L15.4722 41.6466L1.3833 30.4117V30.457L0.975584 30.1399L1.3833 29.7775V7.39841Z" fill="white"/>
<path d="M30.4219 6.26587L32.4604 8.30445V29.0074L24.9856 34.4889L18.6887 29.4604V8.44036L20.6367 6.26587H30.4219ZM23.8984 11.6568V28.3732L26.9336 25.791V11.6568H23.8984Z" fill="white"/>
<path d="M41.2036 23.1634V33.6282L35.6768 29.4604V6.26587H41.2942L44.2389 15.0091V6.26587H49.4486V29.5963L44.3748 33.6282L41.2036 23.1634Z" fill="white"/>
<path d="M62.133 33.6282L56.6062 29.4604V12.5628H52.665V6.26587H66.1196V12.5628H62.133V33.6282Z" fill="white"/>
<path d="M69.4721 5.0881V0.376709H74.9989V5.0881H69.4721ZM74.9989 33.0393L69.4721 29.0075V6.26594H74.9989V33.0393Z" fill="white"/>
<path d="M83.7421 23.1634V33.6282L78.2152 29.4604V6.26587H83.8327L86.7773 15.0091V6.26587H91.987V29.5963L86.9132 33.6282L83.7421 23.1634Z" fill="white"/>
<path d="M103.493 6.26587H109.02V29.0074L101.546 34.4889L95.2486 29.4604V6.26587H100.458V25.791L103.493 28.3732V6.26587Z" fill="white"/>
<path d="M125.737 29.7775L126.145 30.1399L125.737 30.457V30.4117L111.648 41.6466L112.282 39.0191V7.39841L111.376 6.26587H122.656L125.737 8.12324V12.6987H120.301V11.6115H117.265V16.6853H122.475V22.0309H117.265V28.9621L120.301 26.7423V24.6584H125.737V29.7775Z" fill="white"/>
</g>
<defs>
<filter id="filter0_d_189_622" x="0.477264" y="0.376709" width="130.002" height="45.6048" filterUnits="userSpaceOnUse" color-interpolation-filters="sRGB">
<feFlood flood-opacity="0" result="BackgroundImageFix"/>
<feColorMatrix in="SourceAlpha" type="matrix" values="0 0 0 0 0 0 0 0 0 0 0 0 0 0 0 0 0 0 127 0" result="hardAlpha"/>
<feOffset dx="2.16753" dy="2.16753"/>
<feGaussianBlur stdDeviation="1.08376"/>
<feComposite in2="hardAlpha" operator="out"/>
<feColorMatrix type="matrix" values="0 0 0 0 0 0 0 0 0 0 0 0 0 0 0 0 0 0 0.5 0"/>
<feBlend mode="normal" in2="BackgroundImageFix" result="effect1_dropShadow_189_622"/>
<feBlend mode="normal" in="SourceGraphic" in2="effect1_dropShadow_189_622" result="shape"/>
</filter>
</defs>
</svg>
