<svg width="278" height="63" viewBox="0 0 278 63" fill="none" xmlns="http://www.w3.org/2000/svg">
<g filter="url(#filter0_di_37_183)">
<path d="M5.27839 51.0595V2.86747L4 0.943491H12.2262V17.9633L17.0989 0L22.1198 13.8194V0.943491H29.4011L28.8638 2.55298V35.3902L29.4567 35.9267L20.7673 42.6051L16.9692 30.9687L12.2262 43.0491V46.9156L13.1711 48.3216L4.4076 55L5.27839 51.0595Z" fill="white"/>
<path d="M43.5192 0.943481H51.6712V35.1127L43.5192 41.2546V24.9008H39.0356V41.2546L31.3467 35.1127V0.943481H39.0356V15.6323H43.5192V0.943481Z" fill="white"/>
<path d="M60.768 23.5688V29.7107L65.2516 33.5217V26.1218H73.4037V34.4652L62.3613 42.5126L53.0791 35.1127V4.14395L55.9509 0.943481H70.3837L73.3851 3.94045V13.2829H65.2331V8.87991H60.7494V15.4289H65.1034V23.5688H60.768Z" fill="white"/>
<path d="M82.4819 23.5688V29.7107L86.9655 33.5217V26.1218H95.1176V34.4652L84.0938 42.5496L74.8115 35.1497V4.14395L77.6833 0.943481H92.1161L95.1176 3.94045V13.2829H86.9655V8.87991H82.4819V15.4289H86.8358V23.5688H82.4819Z" fill="white"/>
<path d="M104.27 29.6922L108.754 33.5032V26.1033H116.906V34.4467L105.882 42.5311L96.6001 35.1312V0.943481H104.289V29.6922H104.27Z" fill="white"/>
<path d="M145.605 0.943481L148.606 3.94045V34.4467L137.583 42.5311L128.3 35.1312V4.14395L131.172 0.943481H145.605ZM135.989 8.87991V29.7107L140.473 33.5217V8.87991H135.989Z" fill="white"/>
<path d="M169.95 2.60847V10.4154H161.928V8.80591H157.444V18.9438H165.133V26.8247H157.444V52.78L157.907 54.852L149.014 48.3031L150.089 46.6936V2.60847L148.755 0.943481H171.34L169.95 2.60847Z" fill="white"/>
<path d="M181.085 0L182.437 1.70198V51.411L181.9 52.706L202.614 36.1672V2.77497L198 0H181.085ZM194.48 30.6542L189.923 34.1137V8.01043H194.48V30.6542Z" fill="white"/>
<path d="M273.111 50.93V1.62799L273.667 0H264.959L261.031 10.7114L256.825 0H247.858L249.136 1.96098V35.6677L248.673 36.0747L256.01 41.5691V24.0683L261.105 42.1796L266.052 28.6932V46.7306L264.959 48.2846L269.591 51.744L274 55L273.111 50.93Z" fill="white"/>
<path d="M244.653 0H239.798H229.997H222.586H213.174H207.913L204.985 3.25597V34.7242L214.434 42.2536L226.107 37.0922L236.5 42.2536L247.71 34.0397V3.05247L244.653 0ZM239.428 29.2112L234.87 33.0962L226.366 29.3592L217.343 33.0962L212.785 29.2112V8.01043H239.409V29.2112H239.428Z" fill="white"/>
</g>
<defs>
<filter id="filter0_di_37_183" x="0" y="0" width="278" height="63" filterUnits="userSpaceOnUse" color-interpolation-filters="sRGB">
<feFlood flood-opacity="0" result="BackgroundImageFix"/>
<feColorMatrix in="SourceAlpha" type="matrix" values="0 0 0 0 0 0 0 0 0 0 0 0 0 0 0 0 0 0 127 0" result="hardAlpha"/>
<feOffset dy="4"/>
<feGaussianBlur stdDeviation="2"/>
<feComposite in2="hardAlpha" operator="out"/>
<feColorMatrix type="matrix" values="0 0 0 0 0 0 0 0 0 0 0 0 0 0 0 0 0 0 0.25 0"/>
<feBlend mode="normal" in2="BackgroundImageFix" result="effect1_dropShadow_37_183"/>
<feBlend mode="normal" in="SourceGraphic" in2="effect1_dropShadow_37_183" result="shape"/>
<feColorMatrix in="SourceAlpha" type="matrix" values="0 0 0 0 0 0 0 0 0 0 0 0 0 0 0 0 0 0 127 0" result="hardAlpha"/>
<feOffset dx="2" dy="2"/>
<feGaussianBlur stdDeviation="1.5"/>
<feComposite in2="hardAlpha" operator="arithmetic" k2="-1" k3="1"/>
<feColorMatrix type="matrix" values="0 0 0 0 0 0 0 0 0 0 0 0 0 0 0 0 0 0 0.25 0"/>
<feBlend mode="normal" in2="shape" result="effect2_innerShadow_37_183"/>
</filter>
</defs>
</svg>
