<svg width="155" height="87" viewBox="0 0 155 87" fill="none" xmlns="http://www.w3.org/2000/svg">
<g filter="url(#filter0_d_46_82)">
<path d="M2.57856 3.27418L0.515711 0.701782H26.1981L33.2118 4.92051V40.008L14.1305 50.6062V78.6968L14.9556 80.6518L0 68.5101H2.57856V3.27418ZM13.9242 37.7443L22.1756 32.8053V12.8435H13.9242V37.7443Z" fill="white"/>
</g>
<g filter="url(#filter1_d_46_82)">
<path d="M53.9434 50.9149L60.8539 45.1528V39.4935H73.4373V52.3555L56.4188 64.8059L42.082 53.3844V0.701782H53.9434V50.9149V50.9149Z" fill="white"/>
</g>
<g filter="url(#filter2_d_46_82)">
<path d="M92.6216 42.7862V62.8508L80.7603 53.3844V5.64078L85.1954 0.701782H107.474L112.115 5.33209V53.3844L99.5321 62.8508V42.7862H92.6216ZM99.5321 30.5416V12.9464H92.6216V30.5416H99.5321Z" fill="white"/>
</g>
<g filter="url(#filter3_d_46_82)">
<path d="M129.856 77.0505V46.7991H119.542V3.27418L117.479 0.701782H130.269V34.6574H140.273V0.701782H151V46.7991H141.408V69.5391L143.058 72.0086L128.722 82.2982L129.134 80.5489L129.031 80.6518L129.134 80.446L129.856 77.0505Z" fill="white"/>
</g>
<defs>
<filter id="filter0_d_46_82" x="0" y="0.701782" width="37.2119" height="83.95" filterUnits="userSpaceOnUse" color-interpolation-filters="sRGB">
<feFlood flood-opacity="0" result="BackgroundImageFix"/>
<feColorMatrix in="SourceAlpha" type="matrix" values="0 0 0 0 0 0 0 0 0 0 0 0 0 0 0 0 0 0 127 0" result="hardAlpha"/>
<feOffset dx="2" dy="2"/>
<feGaussianBlur stdDeviation="1"/>
<feComposite in2="hardAlpha" operator="out"/>
<feColorMatrix type="matrix" values="0 0 0 0 0 0 0 0 0 0 0 0 0 0 0 0 0 0 0.5 0"/>
<feBlend mode="normal" in2="BackgroundImageFix" result="effect1_dropShadow_46_82"/>
<feBlend mode="normal" in="SourceGraphic" in2="effect1_dropShadow_46_82" result="shape"/>
</filter>
<filter id="filter1_d_46_82" x="42.082" y="0.701782" width="35.355" height="68.1041" filterUnits="userSpaceOnUse" color-interpolation-filters="sRGB">
<feFlood flood-opacity="0" result="BackgroundImageFix"/>
<feColorMatrix in="SourceAlpha" type="matrix" values="0 0 0 0 0 0 0 0 0 0 0 0 0 0 0 0 0 0 127 0" result="hardAlpha"/>
<feOffset dx="2" dy="2"/>
<feGaussianBlur stdDeviation="1"/>
<feComposite in2="hardAlpha" operator="out"/>
<feColorMatrix type="matrix" values="0 0 0 0 0 0 0 0 0 0 0 0 0 0 0 0 0 0 0.5 0"/>
<feBlend mode="normal" in2="BackgroundImageFix" result="effect1_dropShadow_46_82"/>
<feBlend mode="normal" in="SourceGraphic" in2="effect1_dropShadow_46_82" result="shape"/>
</filter>
<filter id="filter2_d_46_82" x="80.7603" y="0.701782" width="35.355" height="66.149" filterUnits="userSpaceOnUse" color-interpolation-filters="sRGB">
<feFlood flood-opacity="0" result="BackgroundImageFix"/>
<feColorMatrix in="SourceAlpha" type="matrix" values="0 0 0 0 0 0 0 0 0 0 0 0 0 0 0 0 0 0 127 0" result="hardAlpha"/>
<feOffset dx="2" dy="2"/>
<feGaussianBlur stdDeviation="1"/>
<feComposite in2="hardAlpha" operator="out"/>
<feColorMatrix type="matrix" values="0 0 0 0 0 0 0 0 0 0 0 0 0 0 0 0 0 0 0.5 0"/>
<feBlend mode="normal" in2="BackgroundImageFix" result="effect1_dropShadow_46_82"/>
<feBlend mode="normal" in="SourceGraphic" in2="effect1_dropShadow_46_82" result="shape"/>
</filter>
<filter id="filter3_d_46_82" x="117.479" y="0.701782" width="37.521" height="85.5964" filterUnits="userSpaceOnUse" color-interpolation-filters="sRGB">
<feFlood flood-opacity="0" result="BackgroundImageFix"/>
<feColorMatrix in="SourceAlpha" type="matrix" values="0 0 0 0 0 0 0 0 0 0 0 0 0 0 0 0 0 0 127 0" result="hardAlpha"/>
<feOffset dx="2" dy="2"/>
<feGaussianBlur stdDeviation="1"/>
<feComposite in2="hardAlpha" operator="out"/>
<feColorMatrix type="matrix" values="0 0 0 0 0 0 0 0 0 0 0 0 0 0 0 0 0 0 0.5 0"/>
<feBlend mode="normal" in2="BackgroundImageFix" result="effect1_dropShadow_46_82"/>
<feBlend mode="normal" in="SourceGraphic" in2="effect1_dropShadow_46_82" result="shape"/>
</filter>
</defs>
</svg>
